<svg width="16" height="16" viewBox="0 0 16 16" fill="none" xmlns="http://www.w3.org/2000/svg">
<path d="M10.3537 12.6463C10.4002 12.6927 10.4371 12.7479 10.4622 12.8086C10.4873 12.8693 10.5003 12.9343 10.5003 13C10.5003 13.0657 10.4873 13.1308 10.4622 13.1915C10.4371 13.2522 10.4002 13.3073 10.3537 13.3538C10.3073 13.4002 10.2521 13.4371 10.1914 13.4622C10.1307 13.4874 10.0657 13.5003 10 13.5003C9.9343 13.5003 9.86925 13.4874 9.80855 13.4622C9.74785 13.4371 9.6927 13.4002 9.64625 13.3538L4.64625 8.35378C4.59976 8.30735 4.56288 8.2522 4.53772 8.1915C4.51255 8.13081 4.4996 8.06574 4.4996 8.00003C4.4996 7.93433 4.51255 7.86926 4.53772 7.80856C4.56288 7.74786 4.59976 7.69272 4.64625 7.64628L9.64625 2.64628C9.74007 2.55246 9.86731 2.49976 10 2.49976C10.1327 2.49976 10.2599 2.55246 10.3537 2.64628C10.4476 2.7401 10.5003 2.86735 10.5003 3.00003C10.5003 3.13272 10.4476 3.25996 10.3537 3.35378L5.70687 8.00003L10.3537 12.6463Z" fill="white"/>
</svg>
