<svg width="1056" height="640" viewBox="0 0 1056 640" fill="none" xmlns="http://www.w3.org/2000/svg">
<g clip-path="url(#clip0_154_9142)">
<path d="M413.151 87.0578C415.844 87.0578 414.844 83.1356 418.614 84.1508C423.631 86.0427 426.54 90.2725 433.542 89.9803C438.158 86.5041 427.032 83.5355 430.849 81.2898C432.88 82.0282 434.296 83.4278 436.281 84.1662C437.358 79.1672 434.757 78.0444 433.557 75.4603C444.776 74.8297 441.082 60.2175 439.051 52.25C442.375 51.0656 446.299 50.3581 451.224 50.8195C450.87 44.4055 443.929 45.0823 440.39 42.083C444.622 42.7905 443.422 37.6685 448.5 39.1759C449.469 34.7615 446.176 34.946 447.146 30.4701C452.009 31.2699 450.485 25.3327 455.317 26.1172C458.718 24.9328 466.998 28.9781 466.197 23.2409C467.444 17.9497 460.303 21.7643 459.395 18.8726C456.179 18.4419 456.841 13.8583 452.593 14.5197C446.715 13.643 440.39 19.7493 437.651 17.4575C438.482 10.1206 449.623 13.766 451.224 7.29049C448.392 3.07601 442.437 2.21466 434.881 2.9222C430.51 1.24564 425.093 -0.90774 422.677 2.9222C421.538 0.799583 418.353 0.814964 415.906 -0.015625C410.443 3.84508 397.1 -0.707783 391.499 2.9222C385.205 3.07601 377.664 1.75322 375.125 5.84465C375.002 8.99781 378.849 15.2426 376.448 15.9502C366.645 14.3044 361.105 16.9653 352.072 14.5043C338.452 16.5193 332.097 26.0403 318.062 27.5938C316.769 32.8234 324.156 28.7628 323.464 33.4233C319.539 36.9302 312.26 36.8379 308.582 40.6679C305.227 38.776 300.826 39.0836 299.041 44.99C303.381 43.7288 303.242 47.2818 305.828 47.8509C305.781 44.0056 312.63 44.0056 312.63 47.8509C315.938 47.005 321.863 41.4062 322.125 49.3583C316.323 49.9428 308.167 47.9432 304.458 50.8041C305.704 56.2337 310.844 57.4796 315.353 59.4638C319.539 60.5251 317.923 55.4801 322.125 56.5875C326.264 59.4484 330.466 62.2171 338.437 60.9558C337.329 67.4006 339.376 70.5999 341.176 73.9991C340.715 77.3984 339.007 79.4749 339.822 84.1508C345.239 86.9963 346.101 77.4753 349.348 82.7357C350.087 87.9038 345.239 87.1347 341.176 87.0578C342.315 93.5641 351.502 91.5338 353.38 97.2249C350.302 99.732 346.532 101.485 343.869 104.485C347.701 106.377 339.637 107.469 341.176 111.729C350.856 118.728 343.346 135.309 350.641 145.107H360.182C364.122 145.276 362.552 151.275 366.953 150.89C368.323 147.983 369.308 144.692 372.432 143.599C370.785 132.663 379.203 132.525 377.879 121.866C381.357 121.758 379.788 116.236 383.266 116.067C388.452 119.02 388.452 112.622 394.176 116.067C396.331 114.083 398.439 111.96 400.994 110.314C407.55 108.561 410.458 102.962 417.275 101.593C417.829 96.3635 429.279 95.0869 425.432 89.9649C422.708 93.2719 416.983 87.4731 413.197 87.0424L413.151 87.0578ZM426.771 81.2745C423.139 78.675 426.771 71.6919 430.833 72.5994C430.141 76.1679 427.201 77.3984 426.771 81.2745ZM436.266 11.628C436.173 15.9348 433.203 17.0115 430.833 18.8726C426.678 16.0578 420.523 15.4118 413.151 15.9655C417.753 9.99759 430.495 12.5355 436.266 11.628Z" fill="#F7F7F7"/>
<path d="M244.641 33.4389V42.0832C248.78 41.068 249.565 43.5906 252.735 43.5444C253.366 36.9305 261.569 30.7472 266.355 33.4235C268.417 39.4991 259.306 33.6081 259.583 37.7457C263.677 39.9298 254.874 40.3451 255.49 43.5444C259.029 42.6523 260.322 44.1289 259.583 47.8666C256.382 47.9281 255.567 45.3594 251.396 46.4669C251.596 50.5737 246.826 49.297 248.688 55.1573C256.798 54.0345 262.646 53.1423 266.339 59.4641C255.551 61.9558 248.596 53.7422 241.87 56.5878C240.793 63.5709 250.104 59.4333 250.058 65.3397C260.307 63.7708 274.064 71.7691 277.204 60.956C280.743 61.4021 283.036 60.4177 282.636 56.5878C283.637 52.6502 276.296 57.6644 277.204 53.6961H286.745C286.699 45.9593 295.04 47.0514 293.532 37.7457C300.565 37.515 301.226 30.5165 309.906 31.9008C311.568 28.4246 314.23 26.0559 319.355 26.102C321.094 22.5182 316.338 19.0728 319.355 18.8575C325.049 16.0734 333.389 20.3187 335.667 11.6129C335.667 9.22877 331.866 10.8284 331.62 8.72119C309.352 11.9513 279.02 4.50672 255.444 14.5199C253.628 23.2873 261.307 21.8107 262.23 27.6094C253.397 28.3477 256.075 16.7348 245.964 18.8728C245.533 20.8724 243.963 21.6569 244.594 24.7177C242.394 24.81 239.87 24.487 240.501 27.6094C239.316 32.2546 244.04 30.6088 244.594 33.4389H244.641ZM273.172 59.4794C273.88 60.2331 272.172 61.4021 271.787 60.9714C271.094 60.2177 272.772 59.0795 273.172 59.4794Z" fill="#F7F7F7"/>
<path d="M578.938 30.4705C579.646 26.4099 586.063 28.3787 584.401 21.7955C571.967 19.6729 560.086 19.1961 549.052 18.873C548.96 21.4571 549.375 23.4259 550.391 24.7179C558.978 27.6558 566.027 32.224 578.938 30.4705Z" fill="#F7F7F7"/>
<path d="M525.984 37.7609C525.815 41.3448 523.429 42.2523 525.984 45.0209C531.57 44.7133 531.755 38.5915 538.172 39.1914C537.849 45.6515 531.509 45.6515 531.416 52.2655C533.679 54.2035 535.972 56.08 540.958 55.1879C540.311 59.71 543.82 59.8177 547.729 59.4947C548.914 54.0497 550.099 48.5586 551.807 43.5597C555.393 47.4204 557.47 53.0038 566.765 50.835C567.966 39.7759 559.578 39.0991 555.885 33.4542C555.47 36.838 552.222 31.7622 550.376 31.9314C547.067 32.1929 544.805 31.2085 543.682 29.0705C546.852 25.2098 542.527 20.5493 536.833 21.8105C532.848 24.1485 538.988 29.332 535.464 30.4856C532.571 23.6101 519.598 16.8116 519.12 30.4856C519.767 34.7 524.984 33.931 525.969 37.7763L525.984 37.7609Z" fill="#F7F7F7"/>
<path d="M663.209 27.6095C663.085 18.4423 650.574 21.5647 651.02 29.0554C655.653 33.5775 658.161 27.0404 663.209 27.6095Z" fill="#F7F7F7"/>
<path d="M739.4 36.2845C750.08 34.3464 761.283 41.3449 763.822 31.9162C760.622 26.3174 748.187 23.9487 740.77 27.6094C737.707 27.7786 740.108 33.7158 739.415 36.2845H739.4Z" fill="#F7F7F7"/>
<path d="M1013.93 123.343C1017.11 122.866 1016.45 118.344 1020.65 119.036C1027.76 119.174 1026.81 127.972 1035.61 126.219C1037.39 123.65 1034.39 118.944 1036.99 114.668C1033.38 112.899 1028.1 105.131 1024.79 111.745C1025.21 108.392 1024.54 106.193 1023.44 104.501C1016.03 101.655 1012.09 95.2104 1000.32 97.2407C998.753 94.549 995.075 94.149 993.52 91.4266C984.625 92.6878 982.733 86.4584 973.099 88.5041C971.221 92.7647 976.839 95.9333 973.099 97.2407C969.159 96.6101 969.883 90.9805 966.328 89.9961C962.327 94.4874 954.986 90.4268 947.184 92.9032C942.336 89.5039 942.69 80.3674 932.333 82.7515C930.363 83.0745 931.872 87.0737 929.579 87.0737C923.915 84.4435 918.391 81.5979 913.297 78.4294C912.681 79.6906 912.097 80.9519 910.588 81.2903C912.281 75.5992 907.341 76.9681 903.756 76.9681C907.111 73.5227 902.294 73.6766 901.093 71.1233C894.538 73.6766 895.015 70.2927 888.844 69.6928C888.367 71.6308 885.396 70.8925 883.411 71.1233C882.042 73.8304 887.459 75.9837 883.411 76.9681C871.716 74.984 856.88 79.5368 846.647 76.9681C843.23 76.0453 841.907 71.6001 838.552 72.6152C832.258 74.1534 828.057 71.1079 823.563 69.7082C821.978 69.1237 819.823 70.0312 818.177 69.7082C814.76 69.016 812.191 65.0938 804.588 66.7396C805.096 63.0173 808.59 62.3713 808.636 58.0799C806.712 53.8193 802.357 52.2197 800.495 47.8821C796.386 49.8356 790.092 49.4203 784.167 49.3895C780.766 48.1744 781.32 42.8063 776.011 43.56C772.825 45.0212 771.671 48.5589 771.933 53.7116C765.192 51.3737 767.608 58.7875 762.422 58.0645C759.821 57.4647 761.33 52.4196 756.99 53.7116C753.466 57.6954 748.541 60.2179 740.724 59.4796C738.307 61.3561 737.123 64.4016 732.567 63.8787C730.659 65.7244 731.936 70.9541 728.412 71.1079C725.611 72.0308 719.01 68.7545 720.348 73.9996C720.348 79.3215 728.258 76.1376 727.104 82.7361C722.103 81.1672 720.764 75.953 713.469 76.9528C713.469 80.7366 714.239 85.474 710.746 85.6432C709.176 83.9205 709.176 80.4597 709.391 76.9528C704.098 75.6761 707.206 83.2591 701.266 81.2749C699.142 78.6755 699.404 73.5227 693.11 75.4454C689.278 81.5518 684.076 86.1662 679.475 91.4112C670.672 92.1033 671.334 88.7041 661.839 88.4887C659.638 95.6564 668.872 90.7036 667.256 97.2253C661.577 95.8256 655.499 97.9636 646.865 97.2253C640.741 99.8709 637.401 105.5 630.568 107.362V98.6558C627.198 98.8865 624.028 98.9172 622.428 97.2253C622.751 105.347 622.489 112.73 614.271 111.73C614.718 117.098 609.301 116.067 606.115 117.544C602.745 119.482 608.531 121.897 604.73 123.343C596.774 125.05 596.312 112.837 596.605 110.33C602.914 110.361 609.855 109.684 614.271 111.745C617.903 102.655 606.638 97.9636 597.944 97.2407C595.82 93.7184 592.157 91.8419 587.125 91.4266C585.232 88.0581 583.278 84.9356 580.292 82.7515H568.027C564.349 85.5048 560.871 88.6272 557.224 91.4266C556.593 89.3039 555.439 92.0264 553.084 91.4266C548.237 96.9177 542.143 101.009 536.818 105.977C535.279 112.591 532.555 117.898 528.662 121.866C528.4 120.19 526.153 120.682 524.584 120.451V126.204C515.95 126.773 515.058 135.386 512.303 142.2C515.058 145.615 515.443 151.475 515.058 158.135C516.366 162.057 523.645 159.704 525.953 162.519C522.983 166.795 520.506 168.395 520.506 172.686C523.399 171.994 523.06 174.716 523.199 177.039C518.367 177.131 515.319 179.284 510.995 179.884C509.749 182.499 507.148 183.622 508.225 188.636C500.5 186.175 505.193 197.004 498.73 195.865C498.945 197.588 498.453 198.45 497.314 198.757C491.359 198.127 490.158 202.695 486.45 204.602C483.172 205.387 479.524 205.833 479.74 210.385C481.494 212.354 485.619 211.801 489.189 211.847C488.542 218.399 495.483 216.753 494.667 223.46C493.267 225.382 493.298 228.843 490.543 229.243C484.218 225.782 478.601 230.55 470.199 229.243C468.829 234.042 473.23 245.039 467.429 245.224C468.429 249.485 471.568 251.484 470.199 258.267C476.508 256.822 478.416 260.159 482.448 261.144C487.527 258.36 488.188 258.36 493.282 261.144C496.375 255.283 501.054 251.023 500.053 240.825C506.024 238.979 505.009 229.689 512.288 229.228C518.059 232.857 520.382 228.212 525.938 227.782C522.091 233.427 524.03 242.486 525.938 249.546C534.54 248.716 529.185 241.317 529.985 233.565C528.616 233.534 528.277 231.012 529.985 230.673V233.565C532.786 234.011 532.694 237.456 534.11 239.395C540.696 239.548 544.79 242.348 546.282 248.116C546.052 251.254 542.881 251.192 539.465 250.961C539.296 256.052 544.282 255.53 546.282 258.252C545.636 251.715 549.945 250.546 553.069 248.116C553.838 244.84 550.499 246.039 550.33 243.701C552.838 239.179 554.946 248.608 557.209 243.701C553.469 236.041 536.572 234.749 540.896 223.444C544.928 230.073 552.607 233.196 557.209 239.395C557.963 240.502 559.132 243.901 559.855 245.209C560.917 247.024 563.164 248.685 562.61 250.961V259.667C564.365 261.636 568.535 261.098 572.136 261.128C574.414 256.145 569.689 248.992 573.459 243.701H577.538C576.029 249.423 577.307 249.116 576.23 255.268C579.261 254.76 578.045 259.482 580.292 261.113C585.232 264.804 594.312 263.666 597.944 261.113C602.022 263.22 594.404 268.65 600.637 268.388C606.238 269.465 600.929 259.006 607.5 261.113V269.788C603.499 272.341 606.238 282.078 600.637 282.847C590.757 278.986 578.43 277.617 565.288 277.094C561.364 278.202 562.041 284.246 558.517 285.831C552.269 278.94 539.896 278.555 534.11 271.295C535.141 266.266 532.555 265.143 531.37 262.574C534.54 262.174 534.479 258.683 532.694 256.775C524.476 256.668 517.936 258.406 512.303 261.113C501.285 260.421 491.728 261.313 486.465 266.958C485.311 263.912 482.541 262.482 478.355 262.574C477.231 267.681 472.353 268.711 468.875 271.295C465.182 278.109 466.567 287 463.474 293.044C461.442 296.874 454.148 300.797 451.193 304.673C450.978 313.148 447.838 318.516 444.376 323.546V361.245C449.069 366.89 453.178 373.181 455.287 381.533C461.55 385.486 465.751 391.685 474.292 393.131C479.771 391.7 486.265 391.392 493.328 391.7C496.145 389.347 495.945 383.871 501.531 384.44C503.947 384.686 502.3 389.347 504.27 390.223C510.533 389.301 512.934 392.546 517.797 393.131C520.121 391.854 521.26 389.085 525.953 390.223C527.323 401.436 523.06 406.574 523.199 416.387C527.077 423.832 533.709 429.461 531.37 439.582C534.956 444.458 535.202 452.871 536.803 459.885C533.448 466.484 534.217 477.374 531.37 484.526C537.187 490.433 541.404 498 543.651 507.767V520.826C549.668 528.363 549.514 542.514 555.839 549.85C568.904 548.835 575.46 540.883 587.11 538.253C589.172 530.27 593.311 524.579 599.298 520.826C598.621 515.196 601.745 513.735 600.621 507.767C603.068 506.46 604.115 503.722 608.808 504.845C608.962 488.11 614.502 477.158 625.151 471.483C627.137 459.67 627.137 442.674 625.151 430.892C628.014 425.262 630.338 419.094 631.876 412.019C635.139 409.665 637.878 406.82 641.418 404.743C647.881 394.73 653.744 384.04 660.469 374.319C661.5 368.874 663.301 361.476 659.069 358.338C653.252 357.461 653.575 363.075 648.25 362.706H635.985C635.339 352.77 628.568 349.34 623.705 343.849C624.921 334.312 615.641 336.02 618.288 324.961C615.98 321.669 611.748 320.346 610.147 316.286C611.44 311.917 608.193 304.996 610.147 304.688C613.379 307.164 617.041 314.778 615.549 317.731C621.258 323.807 625.028 331.775 630.522 338.065C633.769 344.095 633.246 353.17 640.064 358.353C649.528 354.985 656.176 348.54 667.21 346.71C669.118 345.864 667.456 341.157 669.903 340.957C675.812 339.942 678.275 335.328 683.522 333.651C682.553 327.329 687.508 327.206 687.616 322.084C685.261 316.855 678.275 316.547 679.413 307.595C674.273 306.872 670.765 307.995 668.564 310.425C667.441 304.95 662.439 303.473 663.101 295.936C658.715 296.321 659.177 291.476 656.361 290.137C658.377 289.368 659.777 288.03 661.793 287.23C669.303 292.245 667.041 307.703 680.829 306.103C681.383 308.903 684.676 308.764 683.522 313.363C690.093 314.086 691.063 308.872 697.142 309.026C698.527 309.933 698.557 312.317 701.22 311.933C710.669 310.425 713.023 316.701 718.81 319.131C716.563 318.624 716.27 320.285 716.178 322.069C717.578 324.838 722.395 324.038 724.35 326.422C723.626 330.99 726.781 331.528 725.612 336.574C729.751 341.403 731.505 348.709 733.798 355.446C736.676 358.215 739.477 360.999 740.662 365.567V374.335C742.355 376.334 746.541 375.719 750.126 375.75C751.927 366.49 756.79 360.614 755.543 348.186H761.006V342.357C766.146 344.51 763.638 338.435 767.778 339.511C767.393 332.851 772.748 332.19 774.595 327.883C777.904 325.114 781.751 322.961 786.814 322.084C789.907 326.068 789.922 333.313 795.001 335.189C795.478 338.588 792.492 338.265 793.554 342.357C795.078 347.094 804.373 343.449 807.235 346.71C805.404 349.786 807.912 351.032 805.835 355.462C809.39 356.969 811.883 359.615 812.621 364.152C812.129 366.89 808.743 366.767 809.928 371.428C810.344 375.811 814.114 376.58 812.621 383.025C819.162 389.07 825.333 395.561 833.012 400.437C833.381 390.854 826.61 388.947 826.256 380.103C822.47 377.319 818.854 374.442 816.715 369.951C817.346 365.244 814.93 357.446 819.423 356.892C822.409 361.014 824.548 366.013 830.38 367.044C831.396 368.382 831.812 370.305 831.658 372.827C844.862 370.981 848.078 358.43 846.601 340.957C844.862 339.481 841.599 339.511 839.829 338.065C841.553 331.667 833.32 332.098 837.121 327.898C841.107 323.853 840.66 332.667 846.616 330.806C847.601 324.592 854.511 324.653 861.59 324.976C865.898 317.993 871.685 312.609 873.809 303.196C876.025 303.627 876.148 301.858 877.887 301.812C880.164 295.921 877.579 285.031 881.98 281.524C879.087 280.186 877.887 277.217 877.887 272.741C875.594 270.926 872.593 269.757 872.485 265.512C871.885 262.036 874.993 262.343 873.809 258.267C876.625 258.713 878.102 257.975 877.887 255.299C881.78 253.468 871.762 246.639 880.641 246.639C882.18 251.269 886.874 252.484 888.813 256.806C887.474 264.466 891.367 266.666 895.63 268.419C903.771 262.097 895.338 246.147 899.678 235.072C902.525 232.319 906.618 230.873 910.542 229.243C913.682 222.46 916.467 215.307 921.345 210.385C923.223 198.696 918.268 186.652 921.345 178.469C919.499 186.76 924.485 187.729 925.454 192.974C925.716 201.972 926.131 210.647 932.287 213.262C934.811 210.693 931.179 209.586 932.287 204.602C935.996 204.433 935.026 207.017 937.704 204.602C937.935 199.988 934.088 199.68 935.011 194.389C930.102 193.404 928.825 188.467 926.824 184.268C926.316 179.038 927.316 172.132 922.792 171.194C919.945 171.563 922.423 177.639 918.729 177.023C916.421 166.349 907.187 183.699 903.71 172.671C904.648 169.287 907.157 167.672 909.188 165.426C910.742 160.796 910.204 153.982 914.636 152.306C917.744 155.89 917.113 150.183 921.345 150.875C927.763 151.844 933.672 154.674 941.798 153.813C941.32 156.289 942.844 156.582 944.475 156.689C946.26 154.69 950.415 155.305 954.016 155.228C954.709 150.66 951.6 150.137 952.662 145.107C955.417 144.692 955.309 141.2 958.095 140.754C960.88 141.2 960.772 144.692 963.542 145.107C962.911 141.923 967.59 137.109 968.929 140.754C964.589 150.06 958.202 157.289 956.725 169.748C957.618 173.67 960.618 175.285 962.188 178.469C962.788 184.022 963.789 189.328 967.59 191.513C970.991 187.867 972.976 182.761 977.116 179.884C975.869 172.717 981.471 173.763 978.547 168.318C978.885 165.38 982.132 165.441 982.579 162.519C980.578 160.796 976.485 161.227 977.131 156.705C978.47 143.969 987.38 146.722 997.537 147.999C999.507 145.769 999.307 141.247 1001.61 139.324C1009.54 138.693 1015.51 134.71 1020.59 134.94C1020.59 128.742 1013.86 129.634 1013.86 123.343H1013.93ZM557.27 139.324C559.825 142.354 563.41 144.277 568.073 145.123V159.627C565.026 159.027 568.843 151.106 562.687 153.844C559.686 158.843 561.579 169.056 557.286 172.717C552.761 173.163 549.406 172.025 546.344 172.717C542.558 173.532 541.758 176.916 538.188 177.07C538.619 175.285 534.294 172.055 534.156 175.608C530.97 175.193 530.97 171.655 534.156 171.24C531.047 167.764 528.908 163.242 528.708 156.736C535.495 157.366 532.878 177.177 545.005 171.24C548.052 165.349 550.16 158.397 553.13 152.352C552.684 149.029 551.499 146.399 550.391 143.631C551.207 130.003 560.887 125.819 565.334 116.098C566.981 115.914 567.812 116.421 568.073 117.559C566.981 127.526 556.024 126.88 557.27 139.324ZM572.198 149.46C572.121 145.076 576.999 145.892 580.338 145.123C580.446 149.614 576.26 149.445 572.198 149.46ZM583.062 92.9032C582.354 92.1187 584.047 91.042 584.417 91.4266C585.094 92.211 583.447 93.3031 583.062 92.9032ZM607.546 301.827C606.838 301.058 608.516 299.935 608.87 300.351C609.608 301.074 607.9 302.242 607.546 301.827ZM608.87 121.882C608.162 121.143 609.839 120.051 610.224 120.466C610.901 121.22 609.224 122.297 608.87 121.882ZM709.422 98.6711C706.837 98.0713 703.59 98.2097 703.99 94.3336C699.927 94.0414 705.267 88.3042 703.99 94.3336C704.959 96.6562 710.622 94.0106 709.422 98.6711ZM793.647 72.6152C792.985 71.8769 794.693 70.6926 795.093 71.1233C795.816 71.9077 794.062 72.9998 793.647 72.6152ZM797.771 71.1233C797.078 70.3696 798.771 69.2929 799.125 69.6928C799.833 70.3696 798.186 71.5232 797.771 71.1233ZM801.849 68.2162C801.141 67.4779 802.834 66.3397 803.234 66.7396C803.927 67.5548 802.234 68.6007 801.849 68.2162ZM863.052 251.007C864.96 248.254 866.052 244.609 871.223 245.255C871.285 247.5 870.561 250.761 872.547 251.007C870.5 255.376 866.591 249.808 863.052 251.007Z" fill="#F7F7F7"/>
<path d="M380.542 422.216C378.156 419.494 376.556 422.816 373.755 423.647C371.616 418.678 366.338 417.017 361.567 414.895H352.041C349.61 410.711 340.499 413.649 339.791 407.681C336.175 407.681 331.758 408.496 331.681 404.774C335.59 398.006 327.649 379.487 315.323 385.962C311.029 383.24 307.905 379.364 307.182 372.842C300.072 370.735 295.009 366.49 288.099 364.167C286.33 364.705 285.976 366.705 284.037 367.059C282.19 361.829 275.573 361.583 274.48 355.477C270.14 354.185 271.679 359.199 269.078 359.83C265.924 358.814 265.477 355 262.276 354.031C261.045 356.553 259.799 359.045 255.49 358.368C253.397 364.398 247.965 366.751 244.641 371.443C244.948 366.659 242.994 364.444 239.162 364.167C235.669 365.69 234.13 369.381 229.59 369.966C226.42 362.891 231.021 356.169 229.59 346.725C227.143 341.695 218.125 343.602 213.339 340.972C214.693 334.635 218.633 331.159 217.417 322.099C210.831 322.976 210.477 322.976 203.844 322.099C201.336 325.222 202.536 332.282 198.396 333.666C180.206 334.727 191.579 308.795 187.532 297.412C192.348 296.197 195.211 293.075 199.781 291.644C207.214 290.952 208.953 296.305 216.048 295.951C215.94 293.921 215.771 291.89 217.433 291.644C223.973 291.983 232.729 289.783 233.73 295.951C233.145 304.349 236.731 308.302 243.225 309.056C241.594 301.581 242.317 299.304 243.225 294.521C241.686 292.352 239.362 290.968 239.162 287.261C241.455 277.647 247.457 271.926 256.813 269.834C258.06 265.619 258.06 265.419 256.813 261.159C259.983 261.574 262.046 260.928 263.692 259.697C260.307 251.745 268.109 253.499 266.37 243.732C270.894 241.778 275.203 239.702 279.928 237.948C280.636 233.395 275.803 234.657 277.235 229.258C282.205 224.874 289.746 223.244 296.333 220.537C297.271 224.474 293.562 223.475 293.562 226.335C298.995 223.921 304.766 221.875 308.536 217.66C305.181 215.384 298.41 216.753 298.995 210.4C299.749 206.371 304.212 206.355 307.166 204.617C307.705 201.095 304.658 201.479 305.766 197.342C312.383 202.11 320.032 190.328 324.802 192.989C321.663 200.756 315.184 204.94 312.583 213.277C317.616 214.323 318.431 210.816 323.417 211.862C323.54 214.107 322.817 217.384 324.802 217.66C326.141 214.077 330.004 219.645 334.313 217.66C333.651 214.323 331.651 210.247 334.313 207.493C329.358 206.986 328.096 202.525 326.141 198.772C326.603 189.789 326.603 189.005 326.141 179.899C323.54 177.223 322.756 179.807 319.37 179.899C319.524 173.039 313.091 173.055 312.568 166.887C313.615 165.641 314.015 163.595 313.922 161.088C308.69 157.904 310.583 147.153 303.027 146.553C302.334 148.675 304.658 154.059 301.673 153.843C298.872 152.982 292.747 155.658 292.147 152.336V137.862C284.868 141.354 286.207 134.478 279.897 133.509C276.327 137.509 276.973 131.817 273.141 132.079C269.848 131.494 270.202 134.709 266.324 133.509C268.355 147.968 262.63 156.104 264.939 166.871C262.63 167.287 258.168 162.765 256.767 166.871C258.137 171.009 261.307 167.794 262.23 169.763C257.475 172.932 257.383 181.007 255.444 187.205C252.335 182.76 251.72 175.639 250.027 169.763C247.257 166.871 247.334 170.44 244.594 171.224C243.409 167.025 242.563 169.655 239.116 169.763C235.069 165.395 230.467 161.611 224.235 159.627C226.374 152.413 219.449 154.997 220.049 149.46C223.003 150.152 222.696 147.399 222.834 145.122C227.328 142.646 229.236 137.493 233.699 134.94C236.7 129.864 238.777 123.896 245.979 123.342C246.072 120.758 244.302 120.297 244.61 117.544C253.782 115.621 258.891 114.406 264.939 111.729C264.646 106.115 264.939 101.024 266.324 97.2249C264.723 95.1023 261.184 94.9639 259.553 92.8874C264.939 92.4106 269.586 92.8259 271.756 95.7637C274.311 91.3646 278.281 97.4402 282.636 95.7637C280.743 103.147 288.838 99.7936 288.069 105.977C286.73 116.605 271.941 112.883 270.402 123.342C272.649 126.788 278.327 126.511 284.021 126.219C292.454 130.295 295.809 139.816 307.151 140.769C304.104 133.263 309.413 133.448 308.521 124.819C307.921 121.051 304.396 120.451 304.396 116.082C309.583 116.405 310.998 120.681 315.292 121.881C314.907 118.113 314.799 114.667 319.37 116.082C318.416 111.637 320.755 110.807 320.693 107.377C317.031 108.392 318.124 104.408 316.631 103.039C311.999 102.224 308.459 100.209 304.396 98.6708C304.781 95.7175 308.105 95.8714 308.521 92.9028C306.766 89.4266 302.534 88.596 303.011 82.7511H290.808C291.454 78.1521 287.161 78.9212 286.73 75.4604C280.943 74.6298 277.742 76.5063 273.126 76.9678C273.941 67.9697 262.384 70.8306 260.876 75.4604C261.384 70.0616 259.799 66.9699 255.444 66.7392C248.426 71.3536 240.27 86.1811 248.657 94.3332C250.658 95.1484 255.628 92.6874 255.444 95.7637C253.982 100.024 251.15 102.762 248.657 105.977C245.179 102.393 251.519 102.824 250.042 97.2249C245.395 93.9795 240.978 90.4264 239.131 84.1508C233.961 84.843 234.822 79.1519 228.328 81.2745C228.805 84.7353 225.758 84.3969 226.897 88.4883C231.56 90.4571 229.836 101.993 226.897 104.485C224.912 103.224 223.973 100.855 224.25 97.2249C217.402 96.1944 217.402 102.593 211.923 103.024C206.876 100.716 201.32 98.9169 198.381 94.3178C204.444 93.2258 206.568 96.2559 211.923 95.7483C214.924 92.749 211.308 91.5954 211.923 87.0425C219.464 85.4121 222.465 78.9212 229.559 76.937C227.097 72.3841 227.605 68.9541 226.882 65.3395H206.537C203.536 69.4002 196.765 69.4002 195.611 75.445C194.918 73.307 193.626 71.8612 192.918 69.677C189.317 69.6001 184.438 71.0152 186.147 65.3395C196.211 67.5544 208.215 60.0637 217.386 56.5876C217.386 63.2784 229.021 61.6019 230.99 58.0488C230.052 54.7418 229.759 50.6811 228.313 47.851C220.295 48.9892 216.355 54.5572 207.876 55.1571V46.4667C200.443 43.7749 199.12 53.296 203.813 55.1571C196.026 56.1723 191.625 53.5574 184.823 53.6959C186.839 61.2019 178.544 57.7104 178.021 62.4171C181.407 64.2628 182.207 61.6788 183.407 63.8783C182.53 65.8009 180.499 66.57 178.021 66.7238C175.836 58.4333 165.048 59.2485 154.876 59.4792C154.168 66.5085 150.69 70.5076 146.704 73.9992C146.458 78.5674 150.259 78.9058 149.459 84.1508C156.169 84.5969 159.523 81.3976 164.34 79.8133C161.57 87.6731 171.804 81.5514 172.543 85.6428C173.512 89.565 166.141 84.5969 167.079 88.5037C167.049 96.3636 181.945 88.15 179.36 98.6708C184.438 95.4407 186.008 96.3789 191.548 98.6708H192.933C192.502 96.9173 196.842 93.6872 197.011 97.2403C196.765 98.963 194.857 98.8553 192.933 98.6708C193.303 102.331 198.75 106.915 192.933 108.869C191.333 108.576 191.825 106.177 191.548 104.5C179.483 103.347 173.374 95.8714 158.954 97.2403C154.799 95.8867 154.691 90.211 149.474 89.9957C148.828 94.1179 145.227 95.1177 141.287 95.7791C141.734 92.4259 141.072 90.2418 139.964 88.5037C134.716 88.8267 134.716 94.6716 129.084 94.3332C123.913 95.4407 122.59 92.549 118.188 92.9028C116.68 93.2565 117.296 95.7791 115.464 95.7791C114.141 95.7637 114.356 94.0102 114.141 92.9028C110.878 93.3796 108.986 95.1946 104.569 94.3332C93.735 87.104 72.8059 90.5648 61.1409 84.1508C50.9687 88.8883 37.7957 90.2418 31.2245 91.4108C28.1159 97.0403 33.6868 97.148 35.2565 101.593C40.458 100.901 43.7512 102.178 44.8131 105.961C39.3038 103.947 39.9347 108.53 37.9957 110.299C35.5181 109.007 34.3177 106.546 31.2399 105.961C26.0692 111.56 13.6502 109.468 9.46432 116.067C16.9588 115.821 19.6211 120.712 20.3444 127.757C27.5619 124.973 32.9635 128.141 39.3807 126.203C32.7173 139 4.46286 128.68 6.70967 150.89C11.2341 154.397 12.3113 154.874 10.8186 162.518C13.2654 162.703 13.6502 160.734 16.2047 161.073C16.3279 163.38 15.5738 166.595 17.5744 166.871C19.498 162.242 18.2053 172.809 21.6833 171.224C23.3607 165.579 29.424 164.287 33.8868 168.333C28.0236 173.208 25.8999 182.007 18.9902 185.729C12.7576 187.821 10.6185 194.204 2.69312 194.404C3.78574 199.064 0.523254 198.88 -0.0461426 201.679C6.17105 202.494 8.41786 199.095 14.8813 200.233C16.4048 196.05 20.6676 194.835 25.7922 194.404C30.9013 184.437 39.7347 178.392 47.537 171.209H50.2762C51.692 169.855 50.6763 165.918 54.3082 166.856C54.4159 165.979 54.539 165.133 55.647 165.441C55.5701 166.302 55.4931 167.148 54.3082 166.856C54.8929 173.347 50.6763 174.531 48.8758 178.469C60.0483 179.792 62.7568 172.086 71.9902 171.209C72.6058 164.703 71.2669 160.319 70.6206 155.228C76.8686 156.597 77.2071 151.629 82.7934 152.321C86.6099 155.135 89.7339 158.504 92.3654 162.518C100.999 165.441 108.401 169.64 107.308 182.822C113.879 181.884 107.616 174.777 112.802 174.101C113.11 186.375 112.371 199.618 116.819 207.478C112.725 211.246 115.434 212.846 116.819 217.645C116.819 220.506 113.125 219.445 114.172 223.459C113.51 239.363 112.617 250.023 114.172 265.512C117.773 267.911 120.158 271.664 123.636 274.233C127.376 279.832 127.114 289.783 131.777 294.521C130.207 294.782 130.638 297.166 130.407 298.889C136.101 301.073 137.394 307.856 139.979 313.394C144.119 312.301 143.888 315.931 148.028 314.793C148.228 308.625 145.412 309.964 145.381 301.811C144.611 301.811 143.842 300.581 145.381 300.335V301.811C148.259 301.073 147.905 303.857 148.028 306.134C152.306 309.394 155.953 313.24 158.954 317.746C157.969 327.975 161.57 333.328 164.34 339.526C175.574 342.51 182.176 349.939 195.626 346.725C197.181 350.478 198.996 353.816 201.089 356.907C206.214 355.784 207.599 358.676 211.908 358.368C213.201 361.86 215.894 363.783 218.71 365.598V369.966C226.574 370.843 228.159 378.303 235.069 380.118C236.454 378.195 236.361 374.734 239.116 374.35C239.624 379.564 241.901 382.994 243.179 387.331C243.179 390.254 239.501 389.239 240.486 393.161C241.116 400.636 236.13 402.097 235.053 407.681C232.422 417.802 240.516 423.324 235.053 427.984C237.423 430.753 241.763 431.43 244.579 433.829C243.456 435.921 240.208 435.875 237.777 436.69C236.792 448.364 242.763 452.64 250.011 455.609C250.55 459.07 247.488 458.731 248.626 462.838C253.705 467.068 255.521 474.789 263.615 475.897C266.093 482.372 270.387 486.987 270.356 496.2C268.971 498.107 269.078 501.553 267.709 503.429C269.494 504.398 270.186 506.552 270.356 509.243C266.708 515.78 271.987 523.394 270.356 532.454C263.015 537.145 266.401 553.372 263.615 562.924C265.616 566.939 269.171 560.402 270.356 564.401C271.587 571.507 265.708 571.045 263.615 574.522C261.892 579.244 267.94 575.66 266.293 580.367C263.708 583.873 267.786 587.38 264.908 591.918C266.231 601.777 270.817 606.853 267.709 615.159C271.71 618.543 271.294 626.726 275.834 629.664C275.634 632.248 277.435 632.709 277.158 635.447C280.59 636.201 282.79 638.185 285.299 639.784C290.392 638.908 299.318 642.184 300.211 636.877C296.563 636.031 293.916 634.047 292.085 631.063C293.101 626.172 286.591 629.233 288.007 623.834C287.545 617.482 291.931 616.374 292.085 610.76C295.609 610.591 297.364 608.668 297.564 604.992C298.256 599.839 292.778 601.454 293.486 596.255C297.133 591.779 302.719 577.459 293.486 575.952C302.581 578.413 302.273 570.907 304.335 565.831C311.66 566.339 314.153 561.724 319.308 560.002C320.201 553.234 317.123 550.681 316.569 545.528H327.449C327.526 544.067 329.111 544.359 330.189 544.036C330.943 540.498 331.343 536.607 335.621 536.807C335.128 528.578 340.745 526.84 343.746 522.271V512.151C346.332 509.566 347.978 505.998 350.518 503.414C354.837 502.06 358.915 500.615 362.752 499.076C363.367 489.771 369.954 481.696 365.476 471.498C367.538 470.283 368.43 467.837 368.2 464.222C370.4 464.699 370.57 462.9 372.309 462.823C372.816 458.024 376.31 456.409 377.756 452.702C381.357 448.918 377.556 445.688 381.773 443.981C380.834 439.52 383.142 438.643 383.142 435.229C383.204 429.83 381.773 426.046 380.449 422.216H380.542ZM318.047 181.391C318.724 182.145 317.062 183.206 316.662 182.822C315.969 182.068 317.631 180.93 318.047 181.391ZM213.37 68.2004C217.556 69.6155 211.877 72.1073 211.985 74.0145C207.876 72.6148 212.631 69.1079 213.37 68.2004ZM207.938 75.4604C212.231 74.799 212.739 78.1367 217.448 76.9678C217.448 82.7204 212.123 82.9049 207.938 84.1662V75.4604ZM165.848 78.429C165.11 77.6292 166.741 76.5063 167.141 76.9678C167.849 77.7061 166.202 78.7827 165.848 78.429ZM137.286 287.261C137.548 285.615 138.594 286.492 138.594 287.261C138.379 288.937 137.286 288.091 137.286 287.261ZM138.594 290.168C141.826 290.66 141.672 294.674 144.042 295.967C142.334 299.627 137.425 294.413 138.594 290.168Z" fill="#F7F7F7"/>
<path d="M657.853 89.9806C655.868 83.3051 649.482 81.4594 651.005 71.1078C660.608 70.2311 664.194 62.9403 671.365 59.4795C679.952 60.4178 684.292 56.8955 685.046 49.374H678.198C677.874 50.5122 678.182 52.2503 676.797 52.2503C666.61 53.4501 659.007 57.4646 651.005 60.9715C651.682 68.4161 644.434 67.5393 645.557 75.4607C643.88 78.5523 640.494 79.7213 640.171 84.1665C644.495 87.2274 648.743 90.4882 653.698 92.9031C654.298 91.0727 655.499 89.9037 657.869 89.996L657.853 89.9806Z" fill="#F7F7F7"/>
<path d="M884.765 63.8784C888.028 61.5404 889.644 57.4644 892.968 55.1726C887.797 54.4651 886.704 48.4971 882.057 49.3738C881.472 49.4508 880.795 52.7885 879.348 52.2501H871.238C869.423 62.8171 880.934 59.2486 884.781 63.8784H884.765Z" fill="#F7F7F7"/>
<path d="M451.193 129.126C451.347 125.434 456.271 126.849 457.995 124.804C459.442 117.451 454.902 116.482 455.287 110.315C449.393 112.237 447.284 109.392 441.683 111.73C437.989 110.838 438.282 105.669 433.511 105.977C435.188 112.991 428.109 110.822 428.109 116.083C431.91 117.298 431.633 114.052 434.834 114.667C434.127 118.174 429.618 117.775 430.802 123.343C437.604 121.435 436.127 128.341 440.344 129.141C441.467 126.157 449.793 127.649 451.178 129.141L451.193 129.126Z" fill="#F7F7F7"/>
<path d="M264.985 129.126C259.599 127.588 263.138 125.465 259.599 121.866C255.474 122.927 255.582 119.39 251.412 120.451C249.488 123.235 250.704 129.295 244.641 127.757C244.733 132.818 249.088 133.541 254.105 133.494C253.659 122.158 263.384 138.247 264.969 129.126H264.985Z" fill="#F7F7F7"/>
<path d="M504.285 181.391C502.393 179.884 500.084 178.977 498.776 177.039C500.469 168.44 489.758 167.071 494.729 159.612C492.897 158.135 490.605 157.227 489.25 155.228C491.22 153.997 493.559 153.105 493.344 149.445C488.373 148.998 485.757 151.075 482.51 152.321C483.51 160.242 480.355 163.611 481.14 171.209C484.418 173.301 486.111 173.485 487.896 174.101C488.465 179.253 483.325 182.084 481.14 179.884C480.078 186.421 482.079 189.605 483.864 192.989C481.479 194.327 476.57 192.897 477.016 197.342C483.772 196.296 490.589 195.358 498.776 195.865C499.899 189.651 499.145 185.544 504.285 181.391Z" fill="#F7F7F7"/>
<path d="M467.475 187.19C470.614 185.637 475.723 186.237 478.37 184.268C476.939 178.208 478.047 177.854 478.37 171.194H471.599C471.507 177.685 468.506 173.024 466.167 175.562C466.336 179.746 465.413 185.037 467.459 187.19H467.475Z" fill="#F7F7F7"/>
<path d="M933.672 229.243C936.288 229.427 934.657 234.026 937.781 233.58C940.782 230.012 940.32 222.783 945.922 221.998C938.812 220.906 934.349 216.938 926.916 216.184C927.901 223.075 925.393 226.151 925.531 232.181C929.271 236.057 928.917 228.428 933.672 229.227V229.243Z" fill="#F7F7F7"/>
<path d="M902.448 274.233C902.217 279.34 905.649 280.447 907.88 282.877C908.819 277.617 912.112 274.864 916.052 272.726C917.868 272.71 918.976 273.433 920.084 274.218C924.377 268.634 933.395 268.081 937.766 262.589C937.535 252.238 934.749 244.47 935.073 233.565H929.579C931.256 240.363 928.886 243.686 930.979 250.961C929.902 251.315 929.409 252.192 929.579 253.93C924.7 256.129 922.3 257.821 917.36 262.574C912.574 265.235 903.94 263.681 903.771 271.295C903.156 275.294 911.173 270.172 910.604 274.202H902.448V274.233Z" fill="#F7F7F7"/>
<path d="M570.812 262.605C571.213 266.665 575.322 263.774 578.938 266.988C579.923 261.559 576.86 260.559 572.182 261.143C572.398 262.358 571.628 262.512 570.812 262.605Z" fill="#F7F7F7"/>
<path d="M873.87 311.979C876.086 313.994 877.379 316.916 877.948 320.654C883.611 320.315 883.15 313.548 883.442 307.61C880.041 304.38 875.332 308.626 873.87 311.963V311.979Z" fill="#F7F7F7"/>
<path d="M244.641 307.61V313.394H250.073C249.904 309.748 248.103 307.764 244.641 307.61Z" fill="#F7F7F7"/>
<path d="M259.599 314.793C259.999 311.486 259.399 309.272 258.229 307.61H254.136C253.628 312.548 254.551 315.87 259.614 314.793H259.599Z" fill="#F7F7F7"/>
<path d="M260.922 313.394V320.654C263.769 321.238 264.554 319.669 266.37 319.177C266.216 315.516 264.415 313.563 260.922 313.409V313.394Z" fill="#F7F7F7"/>
<path d="M258.214 336.604C263.092 335.758 264.8 338.281 267.786 339.527C267.893 335.343 273.403 336.881 277.235 336.604C275.28 326.991 267.786 328.298 259.599 327.898C260.599 323.945 256.829 324.96 256.829 322.1C253.889 320.469 249.365 320.377 248.719 316.301H228.374C227.774 319.054 225.42 319.946 225.62 323.576C231.16 324.145 231.129 318.793 237.869 320.654C243.594 321.853 244.225 328.406 250.104 329.36C253.335 330.267 259.953 327.529 260.938 330.821C255.967 330.975 257.552 332.913 258.229 336.619L258.214 336.604Z" fill="#F7F7F7"/>
<path d="M271.787 320.654C271.371 318.67 268.401 319.439 266.354 319.177C263.492 324.545 273.28 325.745 271.787 320.654Z" fill="#F7F7F7"/>
<path d="M879.333 336.604C881.457 340.127 884.181 343.049 887.489 345.31C889.198 340.803 893.814 339.496 892.953 332.251C889.244 327.006 879.133 329.391 879.333 336.604Z" fill="#F7F7F7"/>
<path d="M846.677 340.972C850.509 340.142 850.509 335.312 852.156 332.251C850.94 331.128 849.078 330.713 846.677 330.805C844.169 336.466 844.923 332.005 846.677 340.972Z" fill="#F7F7F7"/>
<path d="M243.24 333.666V339.511C247.811 337.958 247.918 339.973 252.751 338.065C253.674 332.251 247.626 333.912 243.24 333.666Z" fill="#F7F7F7"/>
<path d="M279.928 339.527C284.837 339.88 289.361 339.834 288.099 333.682H279.928V339.527Z" fill="#F7F7F7"/>
<path d="M422.646 339.526C422.646 342.372 418.953 341.372 419.968 345.31H425.37C425.77 341.987 425.001 339.834 422.646 339.526Z" fill="#F7F7F7"/>
<path d="M890.244 362.737C893.06 365.859 894.076 361.983 898.354 362.737C897.923 366.121 895.446 368.997 899.739 369.966C901.663 365.721 905.449 363.506 911.943 364.167C913.22 357.492 907.603 358.168 905.156 355.477C905.495 350.724 903.556 348.463 899.739 348.217C897.831 350.093 898.385 354.508 898.354 358.368C893.814 355.892 892.475 359.23 890.244 362.737Z" fill="#F7F7F7"/>
<path d="M755.636 367.059C757.575 375.657 750.465 377.426 755.636 381.564C759.929 382.271 759.252 377.672 762.453 377.226C761.33 372.627 758.498 369.828 755.636 367.074V367.059Z" fill="#F7F7F7"/>
<path d="M845.354 406.266C846.677 412.095 852.602 413.018 852.156 420.755C860.974 418.571 859.62 427.261 868.438 425.077C868.053 421.755 872.346 423.477 872.547 420.755C871.515 420.416 869.853 420.709 869.853 419.263C874.316 417.279 872.069 408.219 876.686 406.266C873.562 401.544 877.81 396.606 875.286 393.161C877.656 391.869 879.964 390.5 879.348 385.962C876.071 383.194 873.408 379.718 867.114 380.118C865.852 395.253 847.785 392.346 845.369 406.266H845.354Z" fill="#F7F7F7"/>
<path d="M819.5 396.068C817.454 392.684 813.16 390.362 814.13 385.962C810.405 386.962 811.375 383.04 808.682 383.04C808.851 389.423 805.358 382.871 801.864 384.471C801.864 401.421 820.962 397.975 818.223 417.833C824.917 418.632 826.795 428.184 833.104 425.077C836.228 419.54 830.303 413.187 830.473 406.266C826.318 403.282 821.424 399.144 819.516 396.068H819.5Z" fill="#F7F7F7"/>
<path d="M895.692 407.681C895.399 401.236 887.105 403.282 884.766 398.975C877.794 404.943 872.962 421.093 883.442 426.508C883.15 422.324 883.75 419.125 886.135 417.817C889.121 420.617 889.305 425.2 894.291 422.216C893.599 416.156 889.044 414.203 888.874 407.681C890.66 409.573 893.814 409.573 895.692 407.681Z" fill="#F7F7F7"/>
<path d="M925.531 401.882C921.114 398.929 910.265 399.498 910.619 406.266C915.267 409.358 925.193 407.912 925.531 401.882Z" fill="#F7F7F7"/>
<path d="M940.505 407.681H930.994C929.779 409.804 928.963 412.311 925.516 412.034C921.315 413.126 922.977 408.004 918.791 409.112C919.175 412.926 913.435 410.296 914.697 414.895C914.867 418.171 918.083 413.08 921.407 414.895C927.47 420.125 935.411 423.247 940.489 429.43V438.151C947.753 433.46 949.938 441.12 955.432 442.504C960.203 442.289 958.71 435.337 964.943 436.706C968.128 438.69 971.729 447.749 977.162 442.504C974.33 441.228 973.022 438.213 973.084 433.845C969.529 430.353 964.543 428.477 962.234 423.662V419.279C951.754 418.894 948.907 410.342 940.489 407.712L940.505 407.681Z" fill="#F7F7F7"/>
<path d="M868.438 441.058C869.192 435.921 863.698 437.474 864.39 432.352C853.31 432.66 845.416 429.338 837.182 426.523C835.997 429.107 833.381 430.245 834.505 435.229C847.462 435.398 853.633 442.873 868.422 441.058H868.438Z" fill="#F7F7F7"/>
<path d="M969.005 497.631C969.559 490.786 966.635 487.648 967.667 480.204C965.004 479.235 964.573 475.836 962.265 474.421C961.788 463.315 952.539 461.577 954.093 448.303C951.554 448.611 951.123 446.688 948.676 446.826C945.168 452.794 950.138 467.791 944.552 471.498C939.212 473.405 941.797 466.715 936.396 468.576C936.18 464.515 929.979 466.822 931.01 461.346C930.302 456.747 937.704 460.808 936.396 455.594C931.671 449.964 917.76 454.133 910.619 451.21C908.249 452.087 910.681 458.07 907.895 458.439C902.832 459.378 898.339 460.777 894.307 462.838C892.599 467.222 893.83 474.913 888.89 475.897C885.658 472.452 882.18 476.112 877.964 475.897C875.317 476.897 878.287 484.003 875.286 484.557C872.485 483.757 872.639 480.204 869.869 483.142C866.483 486.772 868.084 495.724 863.082 497.646C860.035 499.723 853.987 498.6 852.187 501.999C853.633 508.459 856.942 516.504 853.556 523.764C856.203 524.794 857.142 527.671 857.634 531.024C858.373 537.638 855.218 540.052 856.219 546.974C860.281 546.589 860.466 550.25 864.436 549.897C870.115 547.251 873.439 542.144 883.473 544.067C888.259 537.607 897.8 536.161 909.296 536.838C913.174 539.883 915.682 544.513 917.406 549.897C922.715 547.189 921.068 553.25 926.947 549.897C926.885 553.711 927.439 558.141 925.562 560.048C934.257 565.432 939.412 565.755 952.785 565.878C956.217 563.263 958.741 559.602 963.65 558.525C962.988 551.112 970.129 552.004 969.036 544.067C973.776 543.744 972.591 537.145 977.223 536.838C975.669 531.685 979.562 528.609 979.932 523.764C980.67 514.904 977.3 505.844 975.869 497.662C972.468 495.739 970.252 501.938 969.036 497.662L969.005 497.631Z" fill="#F7F7F7"/>
<path d="M652.375 451.225C649.989 455.471 647.896 459.977 646.927 465.745C641.033 467.191 638.032 471.606 634.739 475.897C633.646 480.911 636.709 481.496 636.078 486.033C634.847 489.063 633.908 492.463 631.953 494.755C634.923 501.292 631.015 507.09 636.078 512.166C640.479 512.428 641.818 509.582 646.927 510.705C649.882 504.214 648.743 501.338 652.375 494.755V487.495C652.698 485.864 653.867 485.234 655.083 484.557C652.621 478.204 657.576 472.19 657.869 461.362C652.775 461.439 657.992 450.579 652.375 451.225Z" fill="#F7F7F7"/>
<path d="M1043.78 549.866C1044.04 545.713 1043.97 541.914 1039.72 542.621V554.172C1038.63 558.433 1033.25 557.972 1034.27 564.386C1043.41 562.955 1037.38 568.708 1036.98 573.061C1045.57 572.63 1045.87 563.155 1049.23 557.095C1051.26 554.911 1054.91 554.495 1055.98 551.25C1052.71 546.774 1050.21 550.389 1043.77 549.85L1043.78 549.866Z" fill="#F7F7F7"/>
<path d="M1028.81 567.292C1027.65 570.338 1024.73 571.584 1024.78 575.968C1022.36 575.86 1020.56 576.306 1019.3 577.413C1017 580.32 1016.14 584.689 1012.53 586.088C1006.92 588.365 1005.26 594.779 1002.97 600.624C1007.42 598.27 1010.36 599.916 1015.2 600.624C1016.5 597.163 1020.68 596.778 1019.3 590.457H1024.78C1025.16 582.182 1035.44 584.504 1035.59 575.968C1035.12 571.153 1031.58 569.707 1028.81 567.292Z" fill="#F7F7F7"/>
<path d="M936.396 571.584C934.888 573.815 940.936 580.352 941.874 584.689C948.492 583.997 952.739 580.844 951.385 571.584C945.445 572.753 938.796 569.8 936.396 571.584Z" fill="#F7F7F7"/>
<path d="M320.709 616.559H326.157C327.095 610.853 320.493 611.837 320.709 616.559Z" fill="#F7F7F7"/>
</g>
<defs>
<clipPath id="clip0_154_9142">
<rect width="1056" height="640" fill="white"/>
</clipPath>
</defs>
</svg>
