<svg width="57" height="43" viewBox="0 0 57 43" fill="none" xmlns="http://www.w3.org/2000/svg">
<path opacity="0.1" d="M25.8052 0L13.3925 20.0341C16.4413 20.2513 18.9456 21.4457 20.9054 23.6174C22.9742 25.7891 24.0086 28.4495 24.0086 31.5985C24.0086 34.9646 22.8109 37.7336 20.4155 39.9053C18.1289 41.9684 15.3524 43 12.086 43C8.7106 43 5.82521 41.9684 3.4298 39.9053C1.14327 37.7336 0 34.8018 0 31.1098C0 27.7437 1.19771 23.9432 3.59312 19.7083C6.09742 15.4735 10.1805 9.44697 15.8424 1.62879L16.9857 0H25.8052ZM57 0L44.5874 20.0341C47.6361 20.2513 50.1404 21.4457 52.1003 23.6174C54.1691 25.7891 55.2034 28.4495 55.2034 31.5985C55.2034 34.9646 54.0057 37.7336 51.6103 39.9053C49.3238 41.9684 46.6017 43 43.4441 43C40.0688 43 37.1834 41.9684 34.788 39.9053C32.3925 37.7336 31.1948 34.8018 31.1948 31.1098C31.1948 27.7437 32.447 23.9432 34.9513 19.7083C37.4556 15.4735 41.4842 9.44697 47.0372 1.62879L48.1805 0H57Z" fill="#1A1A1A"/>
</svg>
